<svg width="512" height="512" viewBox="0 0 512 512" fill="none" xmlns="http://www.w3.org/2000/svg">
  <rect width="512" height="512" rx="64" fill="#3b82f6"/>
  <rect x="86" y="128" width="340" height="256" rx="20" fill="white"/>
  <rect x="106" y="148" width="10" height="216" fill="#1f2937"/>
  <rect x="128" y="148" width="6" height="216" fill="#1f2937"/>
  <rect x="144" y="148" width="16" height="216" fill="#1f2937"/>
  <rect x="170" y="148" width="6" height="216" fill="#1f2937"/>
  <rect x="186" y="148" width="10" height="216" fill="#1f2937"/>
  <rect x="208" y="148" width="6" height="216" fill="#1f2937"/>
  <rect x="224" y="148" width="16" height="216" fill="#1f2937"/>
  <rect x="250" y="148" width="6" height="216" fill="#1f2937"/>
  <rect x="266" y="148" width="10" height="216" fill="#1f2937"/>
  <rect x="288" y="148" width="6" height="216" fill="#1f2937"/>
  <rect x="304" y="148" width="16" height="216" fill="#1f2937"/>
  <rect x="330" y="148" width="6" height="216" fill="#1f2937"/>
  <rect x="346" y="148" width="10" height="216" fill="#1f2937"/>
  <rect x="368" y="148" width="6" height="216" fill="#1f2937"/>
  <rect x="384" y="148" width="16" height="216" fill="#1f2937"/>
  <rect x="410" y="148" width="6" height="216" fill="#1f2937"/>
  <circle cx="256" cy="420" r="20" fill="white"/>
  <text x="256" y="434" text-anchor="middle" fill="#1f2937" font-family="Arial, sans-serif" font-size="32" font-weight="bold">123</text>
</svg>