<svg width="192" height="192" viewBox="0 0 192 192" fill="none" xmlns="http://www.w3.org/2000/svg">
  <rect width="192" height="192" rx="24" fill="#3b82f6"/>
  <rect x="32" y="48" width="128" height="96" rx="8" fill="white"/>
  <rect x="40" y="56" width="4" height="80" fill="#1f2937"/>
  <rect x="48" y="56" width="2" height="80" fill="#1f2937"/>
  <rect x="54" y="56" width="6" height="80" fill="#1f2937"/>
  <rect x="64" y="56" width="2" height="80" fill="#1f2937"/>
  <rect x="70" y="56" width="4" height="80" fill="#1f2937"/>
  <rect x="78" y="56" width="2" height="80" fill="#1f2937"/>
  <rect x="84" y="56" width="6" height="80" fill="#1f2937"/>
  <rect x="94" y="56" width="2" height="80" fill="#1f2937"/>
  <rect x="100" y="56" width="4" height="80" fill="#1f2937"/>
  <rect x="108" y="56" width="2" height="80" fill="#1f2937"/>
  <rect x="114" y="56" width="6" height="80" fill="#1f2937"/>
  <rect x="124" y="56" width="2" height="80" fill="#1f2937"/>
  <rect x="130" y="56" width="4" height="80" fill="#1f2937"/>
  <rect x="138" y="56" width="2" height="80" fill="#1f2937"/>
  <rect x="144" y="56" width="6" height="80" fill="#1f2937"/>
  <rect x="154" y="56" width="2" height="80" fill="#1f2937"/>
  <circle cx="96" cy="160" r="8" fill="white"/>
  <text x="96" y="168" text-anchor="middle" fill="#1f2937" font-family="Arial, sans-serif" font-size="12" font-weight="bold">123</text>
</svg>